<svg width="124" height="28" viewBox="0 0 124 28" fill="none" xmlns="http://www.w3.org/2000/svg">
<circle cx="62" cy="14" r="14" fill="#C4C4C4"/>
<g clip-path="url(#clip0_26_280)">
<path d="M67.2771 15.1609C67.0185 14.8459 67.0925 14.7057 67.2771 14.4241C67.2805 14.4209 69.4159 11.5756 69.6359 10.6107L69.6372 10.6101C69.7465 10.2584 69.6372 10 69.1085 10H67.3591C66.9138 10 66.7084 10.2218 66.5984 10.4699C66.5984 10.4699 65.7077 12.5258 64.4477 13.8584C64.041 14.2435 63.853 14.3669 63.631 14.3669C63.5217 14.3669 63.3517 14.2435 63.3517 13.8919V10.6101C63.3517 10.1884 63.227 10 62.8583 10H60.1075C59.8282 10 59.6622 10.1967 59.6622 10.3799C59.6622 10.7798 60.2922 10.8717 60.3576 11.9967V14.4376C60.3576 14.9725 60.2569 15.0709 60.0335 15.0709C59.4389 15.0709 57.9955 13.0066 57.1401 10.6441C56.9674 10.1858 56.7988 10.0006 56.3501 10.0006H54.6C54.1007 10.0006 54 10.2224 54 10.4706C54 10.909 54.5947 13.0889 56.7654 15.9689C58.2122 17.9348 60.2495 19 62.103 19C63.217 19 63.353 18.7634 63.353 18.3565C63.353 16.4781 63.2523 16.3006 63.8103 16.3006C64.069 16.3006 64.5144 16.4241 65.5544 17.3723C66.7431 18.4966 66.9384 19 67.6038 19H69.3532C69.8519 19 70.1046 18.7634 69.9592 18.2967C69.6265 17.3151 67.3785 15.2959 67.2771 15.1609Z" fill="black"/>
</g>
<circle cx="110" cy="14" r="14" fill="#C4C4C4"/>
<g clip-path="url(#clip1_26_280)">
<path d="M113.065 5.4668H106.739C103.828 5.4668 101.467 7.82751 101.467 10.7386V17.0648C101.467 19.9758 103.828 22.3365 106.739 22.3365H113.065C115.976 22.3365 118.337 19.9758 118.337 17.0648V10.7386C118.337 7.82751 115.976 5.4668 113.065 5.4668ZM116.755 17.0648C116.755 19.0997 115.1 20.755 113.065 20.755H106.739C104.704 20.755 103.048 19.0997 103.048 17.0648V10.7386C103.048 8.70368 104.704 7.04834 106.739 7.04834H113.065C115.1 7.04834 116.755 8.70368 116.755 10.7386V17.0648Z" fill="black"/>
<path d="M109.902 9.68408C107.572 9.68408 105.684 11.5724 105.684 13.9015C105.684 16.2306 107.572 18.119 109.902 18.119C112.231 18.119 114.119 16.2306 114.119 13.9015C114.119 11.5724 112.231 9.68408 109.902 9.68408ZM109.902 16.5374C108.449 16.5374 107.266 15.3544 107.266 13.9015C107.266 12.4476 108.449 11.2656 109.902 11.2656C111.354 11.2656 112.537 12.4476 112.537 13.9015C112.537 15.3544 111.354 16.5374 109.902 16.5374Z" fill="black"/>
<path d="M114.435 9.9301C114.746 9.9301 114.997 9.6785 114.997 9.36813C114.997 9.05776 114.746 8.80615 114.435 8.80615C114.125 8.80615 113.873 9.05776 113.873 9.36813C113.873 9.6785 114.125 9.9301 114.435 9.9301Z" fill="black"/>
</g>
<circle cx="14" cy="14" r="14" fill="#C4C4C4"/>
<g clip-path="url(#clip2_26_280)">
<path d="M12.1102 15.9675L11.8486 19.7514C12.2228 19.7514 12.3849 19.5861 12.5793 19.3875L14.3337 17.6629L17.9692 20.4013C18.636 20.7835 19.1057 20.5822 19.2856 19.7704L21.6719 8.26942L21.6726 8.26874C21.884 7.25499 21.3161 6.85857 20.6665 7.10726L6.63983 12.6307C5.68253 13.0129 5.69703 13.5618 6.47709 13.8105L10.0631 14.9578L18.3929 9.59692C18.7849 9.32993 19.1413 9.47766 18.8481 9.74465L12.1102 15.9675Z" fill="black"/>
</g>
<defs>
<clipPath id="clip0_26_280">
<rect width="16" height="9" fill="white" transform="translate(54 10)"/>
</clipPath>
<clipPath id="clip1_26_280">
<rect width="18" height="18" fill="white" transform="translate(101 5)"/>
</clipPath>
<clipPath id="clip2_26_280">
<rect width="17" height="14" fill="white" transform="translate(5 7)"/>
</clipPath>
</defs>
</svg>
