<svg width="25" height="22" viewBox="0 0 25 22" fill="none" xmlns="http://www.w3.org/2000/svg">
<path d="M24.0143 20.4478L18.038 14.9807C19.6666 13.1586 20.4674 10.8335 20.2746 8.48647C20.0818 6.13941 18.9103 3.94992 17.0023 2.37087C15.0944 0.791825 12.596 -0.0559616 10.0239 0.00286919C7.45182 0.0617 5.00284 1.02265 3.18354 2.68695C1.36423 4.35124 0.313784 6.59156 0.249474 8.9445C0.185164 11.2974 1.11191 13.583 2.83802 15.3284C4.56414 17.0738 6.95755 18.1455 9.52321 18.3218C12.0889 18.4982 14.6305 17.7656 16.6223 16.2758L22.5986 21.7429C22.7874 21.9097 23.0403 22.0021 23.3028 22C23.5654 21.9979 23.8165 21.9016 24.0021 21.7317C24.1877 21.5619 24.293 21.3322 24.2953 21.092C24.2976 20.8519 24.1967 20.6205 24.0143 20.4478ZM10.2906 16.5158C8.7064 16.5158 7.1578 16.086 5.8406 15.2809C4.5234 14.4758 3.49677 13.3314 2.89053 11.9925C2.28429 10.6536 2.12567 9.18033 2.43473 7.75897C2.74379 6.33761 3.50664 5.03201 4.62683 4.00727C5.74701 2.98252 7.17422 2.28466 8.72796 2.00194C10.2817 1.71921 11.8922 1.86432 13.3558 2.4189C14.8194 2.97349 16.0703 3.91265 16.9505 5.11762C17.8306 6.32259 18.3003 7.73925 18.3003 9.18846C18.298 11.1311 17.4533 12.9936 15.9517 14.3672C14.4501 15.7409 12.4142 16.5136 10.2906 16.5158Z" fill="#EC762A"/>
</svg>
